<svg width="13" height="11" viewBox="0 0 13 11" fill="none" xmlns="http://www.w3.org/2000/svg">
<g id="Arrow - Left">
<path id="Stroke 1" d="M12.5 5.20605C12.5 5.49083 12.2884 5.72617 12.0138 5.76342L11.9375 5.76855L0.6875 5.76855C0.37684 5.76855 0.125 5.51671 0.125 5.20605C0.125 4.92128 0.336616 4.68594 0.611172 4.64869L0.6875 4.64355L11.9375 4.64355C12.2482 4.64355 12.5 4.89539 12.5 5.20605Z" fill="#999999"/>
<path id="Stroke 3" d="M5.6215 9.32565C5.84164 9.54484 5.84241 9.901 5.62321 10.1211C5.42394 10.3213 5.11149 10.3401 4.89093 10.1772L4.82772 10.1229L0.29022 5.60485C0.0894923 5.40499 0.0712318 5.0914 0.235447 4.87085L0.290187 4.80768L4.82769 0.28893C5.04781 0.0697152 5.40396 0.0704525 5.62318 0.290577C5.82247 0.49069 5.83997 0.803224 5.67613 1.02309L5.62153 1.08607L1.48451 5.20648L5.6215 9.32565Z" fill="#999999"/>
</g>
</svg>
