<svg width="27" height="27" viewBox="0 0 27 27" fill="none" xmlns="http://www.w3.org/2000/svg">
<g id="Call">
<mask id="mask0_1096_16509" style="mask-type:luminance" maskUnits="userSpaceOnUse" x="0" y="0" width="27" height="27">
<path id="Clip 2" fill-rule="evenodd" clip-rule="evenodd" d="M0.500977 0.500244H26.1255V26.1246H0.500977V0.500244Z" fill="white"/>
</mask>
<g mask="url(#mask0_1096_16509)">
<path id="Fill 1" fill-rule="evenodd" clip-rule="evenodd" d="M3.44983 4.32595C3.45233 4.32595 3.38983 4.39095 3.31108 4.46845C3.00858 4.7622 2.38233 5.37345 2.37608 6.6522C2.36608 8.44095 3.54233 11.7622 9.20608 17.4247C14.8436 23.0597 18.1598 24.2497 19.9523 24.2497H19.9786C21.2573 24.2435 21.8673 23.616 22.1623 23.3147C22.2523 23.2222 22.3248 23.1547 22.3761 23.1122C23.6211 21.8597 24.2586 20.9272 24.2523 20.3297C24.2436 19.7197 23.4848 18.9985 22.4361 18.001C22.1023 17.6835 21.7398 17.3385 21.3573 16.956C20.3661 15.9672 19.8748 16.136 18.7948 16.516C17.3011 17.0397 15.2511 17.7522 12.0661 14.566C8.87608 11.3785 9.58983 9.33095 10.1123 7.8372C10.4898 6.7572 10.6623 6.2647 9.66983 5.2722C9.28108 4.8847 8.93233 4.5172 8.61108 4.1797C7.61983 3.1372 6.90483 2.38345 6.29858 2.3747H6.28858C5.68983 2.3747 4.75983 3.0147 3.44358 4.33095C3.44733 4.3272 3.44858 4.32595 3.44983 4.32595ZM19.9536 26.1247C16.8386 26.1247 12.7773 23.6447 7.88108 18.751C2.96608 13.8372 0.482332 9.76345 0.501082 6.6422C0.512332 4.5797 1.59358 3.52345 1.99983 3.1272C2.02108 3.10095 2.09358 3.0297 2.11858 3.0047C3.91108 1.21095 5.11983 0.485953 6.32233 0.499703C7.71858 0.518453 8.71233 1.56345 9.96983 2.8872C10.2811 3.2147 10.6186 3.57095 10.9948 3.94595C12.8198 5.77095 12.2998 7.2597 11.8823 8.4547C11.4273 9.75845 11.0336 10.8835 13.3911 13.241C15.7511 15.5985 16.8761 15.2047 18.1748 14.746C19.3711 14.3285 20.8561 13.806 22.6836 15.631C23.0536 16.001 23.4048 16.3347 23.7286 16.6435C25.0586 17.9072 26.1086 18.906 26.1261 20.306C26.1411 21.4997 25.4161 22.716 23.6261 24.5072L22.8336 23.9697L23.5036 24.6247C23.1073 25.031 22.0523 26.1135 19.9886 26.1247H19.9536Z" fill="white"/>
</g>
</g>
</svg>
