<svg width="30" height="30" viewBox="0 0 30 30" fill="none" xmlns="http://www.w3.org/2000/svg">
<g id="Group">
<g id="Page-1_16_">
<g id="_x30_17---Box-of-Points">
<path id="Shape_112_" d="M1.3097 20.001H2.50058V28.5003C2.50058 29.3286 3.17212 30.0002 4.00045 30.0002H25.9986C26.8269 30.0002 27.4984 29.3286 27.4984 28.5003V20.001H28.6893C29.0367 20.0016 29.3594 19.8217 29.5418 19.5261C29.7242 19.2305 29.7401 18.8614 29.5837 18.5511L27.5839 14.5515C27.415 14.2127 27.0681 13.9994 26.6895 14.0015H3.30957C2.93044 14 2.58354 14.2143 2.41515 14.5539L0.415287 18.5536C0.260144 18.8636 0.276666 19.2319 0.458877 19.5267C0.641146 19.8216 0.963091 20.0011 1.3097 20.001ZM3.50051 28.5003V20.001H12.1907C12.5693 20.003 12.9161 19.7898 13.0852 19.4511L14.4995 16.6193V29.0002H4.00045C3.72438 29.0003 3.50051 28.7764 3.50051 28.5003ZM26.4986 28.5003C26.4986 28.7764 26.2747 29.0002 25.9986 29.0002H15.4995V16.6193L16.9139 19.4481C17.0821 19.7881 17.4291 20.0026 17.8083 20.0011H26.4986V28.5003ZM26.6896 15.0015L28.6894 19.0011H17.8083L15.8085 15.0015H26.6896ZM3.30957 15.0015H14.1906L12.1908 19.0011H1.3097L3.30957 15.0015Z" fill="white"/>
<path id="Shape_111_" d="M21.0842 6.33465C21.4685 5.9434 21.5996 5.36905 21.4232 4.84978C21.2639 4.35072 20.8368 3.98413 20.3193 3.90234L17.6995 3.50839C17.5737 3.48624 17.4671 3.40281 17.4155 3.28593L16.2371 0.802646C16.0168 0.31718 15.5329 0.00537109 14.9997 0.00537109C14.4666 0.00537109 13.9827 0.317122 13.7624 0.802646L12.5824 3.28845C12.5308 3.40533 12.4243 3.48876 12.2985 3.51091L9.68018 3.9024C9.16208 3.9846 8.73479 4.3523 8.57625 4.8523C8.39984 5.37157 8.53097 5.94592 8.91525 6.33717L10.7936 8.24048C10.8937 8.34536 10.9381 8.49159 10.9131 8.63443L10.4676 11.3342C10.3716 11.8795 10.5984 12.4313 11.05 12.7516C11.468 13.0518 12.0214 13.0848 12.4719 12.8361L14.8377 11.5432C14.9399 11.4857 15.0646 11.4857 15.1667 11.5432L17.5325 12.8361C17.9831 13.0847 18.5365 13.0518 18.9544 12.7516C19.405 12.4308 19.6307 11.8794 19.5344 11.3347L19.0889 8.63496C19.0639 8.49195 19.1082 8.34553 19.2084 8.24048L21.0842 6.33465ZM18.494 7.53455C18.1698 7.86757 18.0236 8.33505 18.1 8.79344L18.546 11.4932C18.5797 11.6606 18.5124 11.8322 18.374 11.9322C18.2679 12.0118 18.1246 12.0206 18.0096 11.9547L15.6438 10.6618C15.2428 10.4411 14.7568 10.4411 14.3559 10.6618L11.99 11.9572C11.875 12.0233 11.7316 12.0145 11.6256 11.9347C11.4871 11.8347 11.4199 11.6631 11.4536 11.4957L11.8996 8.79596C11.976 8.33757 11.8297 7.87009 11.5056 7.53707L9.62728 5.63223C9.50834 5.5082 9.46967 5.32763 9.52727 5.16575C9.56816 5.0242 9.6861 4.91827 9.83122 4.89278L12.45 4.49731C12.9047 4.42548 13.2937 4.13218 13.4879 3.71486L14.6678 1.22905C14.7223 1.09231 14.8546 1.00255 15.0018 1.00255C15.149 1.00255 15.2813 1.09231 15.3358 1.22905L16.5157 3.71533C16.7092 4.13136 17.0966 4.42431 17.5496 4.49725L20.1679 4.89272C20.313 4.91821 20.4309 5.02414 20.4718 5.16569C20.5295 5.32757 20.4907 5.50814 20.3718 5.63217L18.494 7.53455Z" fill="white"/>
<path id="Shape_110_" d="M3.21074 10.5255L2.98775 11.8754C2.9236 12.2422 3.0761 12.6132 3.37971 12.8288C3.66679 13.0344 4.04657 13.0566 4.35562 12.8858L5.5005 12.2613L6.64538 12.8868C6.95438 13.058 7.33433 13.0358 7.6213 12.8298C7.9249 12.6142 8.07741 12.2432 8.01326 11.8764L7.7813 10.545L8.72071 9.59508C8.98044 9.33278 9.06932 8.94604 8.95021 8.59667C8.84129 8.2585 8.55128 8.01037 8.20027 7.95524L6.92638 7.76278L6.34693 6.54337C6.19566 6.21346 5.86598 6.00195 5.50302 6.00195C5.14006 6.00195 4.81039 6.21346 4.65911 6.54337L4.07715 7.76278L2.80325 7.95524C2.45131 8.00955 2.16013 8.25779 2.0508 8.59667C1.93233 8.94545 2.02074 9.33126 2.2793 9.59356L3.21074 10.5255ZM4.26065 8.74613C4.57041 8.69832 4.83599 8.49918 4.96858 8.2152L5.5005 7.09627L6.03143 8.2152C6.16408 8.49918 6.4296 8.69838 6.73936 8.74613L7.96873 8.93209L7.06881 9.8435C6.8508 10.067 6.75225 10.3809 6.80334 10.6889L7.03529 11.9608L5.94191 11.3609C5.66672 11.2096 5.33323 11.2096 5.05798 11.3609L3.98909 11.9478L4.19708 10.6885C4.24793 10.3802 4.14921 10.0662 3.93109 9.84256L3.02179 8.93362L4.26065 8.74613Z" fill="white"/>
<path id="Shape_109_" d="M25.3429 6.54337C25.1916 6.21346 24.8619 6.00195 24.499 6.00195C24.136 6.00195 23.8063 6.21346 23.655 6.54337L23.0756 7.76278L21.8017 7.95524C21.4507 8.01043 21.1607 8.2585 21.0518 8.59667C20.9333 8.94545 21.0217 9.33126 21.2803 9.59356L22.2107 10.5255L21.9877 11.8754C21.9236 12.2422 22.0761 12.6132 22.3797 12.8288C22.6668 13.0344 23.0465 13.0566 23.3556 12.8858L24.499 12.2613L25.6439 12.8868C25.9529 13.058 26.3328 13.0358 26.6198 12.8298C26.9234 12.6142 27.0759 12.2432 27.0118 11.8764L26.7798 10.545L27.7192 9.59508C27.979 9.33278 28.0678 8.94604 27.9487 8.59667C27.8398 8.2585 27.5498 8.01037 27.1988 7.95524L25.9249 7.76278L25.3429 6.54337ZM26.0678 9.84309C25.8498 10.0666 25.7512 10.3805 25.8023 10.6885L26.0343 11.9604L24.9409 11.3605C24.6657 11.2092 24.3322 11.2092 24.057 11.3605L22.9875 11.9449L23.1955 10.6855C23.2464 10.3773 23.1477 10.0633 22.9295 9.83963L22.0201 8.93069L23.26 8.7432C23.5698 8.69539 23.8354 8.49625 23.968 8.21227L24.4989 7.09639L25.0298 8.21532C25.1625 8.4993 25.428 8.6985 25.7378 8.74625L26.9671 8.93221L26.0678 9.84309Z" fill="white"/>
<path id="Shape_108_" d="M11.4997 2.00258C11.6734 2.00351 11.8352 1.91423 11.927 1.7667C12.0187 1.61917 12.0273 1.43456 11.9497 1.27918L11.4497 0.279249C11.3263 0.0321213 11.0259 -0.0681826 10.7788 0.0552638C10.5316 0.17871 10.4313 0.479095 10.5548 0.726222L11.0547 1.72616C11.139 1.89483 11.3111 2.0017 11.4997 2.00258Z" fill="white"/>
<path id="Shape_107_" d="M9.14615 2.85601C9.3423 3.04549 9.65417 3.04279 9.84699 2.84992C10.0399 2.65704 10.0426 2.34524 9.85308 2.14908L9.35314 1.64914C9.15699 1.45967 8.84512 1.46236 8.65231 1.65524C8.45943 1.84811 8.45674 2.15992 8.64621 2.35607L9.14615 2.85601Z" fill="white"/>
<path id="Shape_106_" d="M18.4988 2.00237C18.6892 2.00342 18.8636 1.89621 18.9488 1.72589L19.4487 0.725955C19.5721 0.477422 19.4707 0.175924 19.2222 0.0525365C18.9737 -0.0708513 18.6722 0.0305072 18.5488 0.27904L18.0488 1.27897C17.9711 1.43441 17.9798 1.61896 18.0715 1.76649C18.1633 1.91402 18.3251 2.00331 18.4988 2.00237Z" fill="white"/>
<path id="Shape_105_" d="M20.8527 2.8556L21.3527 2.35567C21.4826 2.23011 21.5348 2.04427 21.489 1.86944C21.4433 1.69461 21.3067 1.55816 21.132 1.5124C20.9572 1.46664 20.7713 1.51879 20.6457 1.64874L20.1458 2.14867C20.0159 2.27423 19.9637 2.46007 20.0095 2.6349C20.0552 2.80973 20.1917 2.94618 20.3665 2.99194C20.5413 3.0377 20.7272 2.98561 20.8527 2.8556Z" fill="white"/>
</g>
</g>
</g>
</svg>
