<svg width="13" height="11" viewBox="0 0 13 11" fill="none" xmlns="http://www.w3.org/2000/svg">
<g id="Arrow - Left">
<path id="Stroke 1" d="M13 5.20605C13 5.49083 12.7884 5.72617 12.5138 5.76342L12.4375 5.76855L1.1875 5.76855C0.87684 5.76855 0.625 5.51671 0.625 5.20605C0.625 4.92128 0.836616 4.68594 1.11117 4.64869L1.1875 4.64355L12.4375 4.64355C12.7482 4.64355 13 4.89539 13 5.20605Z" fill="white"/>
<path id="Stroke 3" d="M6.1215 9.32565C6.34164 9.54484 6.34241 9.901 6.12321 10.1211C5.92394 10.3213 5.61149 10.3401 5.39093 10.1772L5.32772 10.1229L0.79022 5.60485C0.589492 5.40499 0.571232 5.0914 0.735447 4.87085L0.790187 4.80768L5.32769 0.28893C5.54781 0.0697152 5.90396 0.0704525 6.12318 0.290577C6.32247 0.49069 6.33997 0.803224 6.17613 1.02309L6.12153 1.08607L1.98451 5.20648L6.1215 9.32565Z" fill="white"/>
</g>
</svg>
