<svg width="23" height="19" viewBox="0 0 23 19" fill="none" xmlns="http://www.w3.org/2000/svg">
<g id="Arrow - Left">
<path id="Stroke 1" d="M22.167 9.36572C22.167 9.87198 21.7908 10.2904 21.3027 10.3566L21.167 10.3657L1.16699 10.3657C0.614706 10.3657 0.166992 9.91801 0.166992 9.36572C0.166992 8.85946 0.543198 8.44107 1.0313 8.37485L1.16699 8.36572L21.167 8.36572C21.7193 8.36572 22.167 8.81344 22.167 9.36572Z" fill="#1A1A1A"/>
<path id="Stroke 3" d="M9.93898 16.6897C10.3303 17.0794 10.3317 17.7126 9.94203 18.1039C9.58777 18.4597 9.03229 18.4932 8.64018 18.2036L8.52782 18.107L0.461149 10.075C0.1043 9.71965 0.0718374 9.16217 0.363776 8.77007L0.46109 8.65777L8.52776 0.624439C8.91909 0.234724 9.55225 0.236035 9.94197 0.627367C10.2963 0.983123 10.3274 1.53874 10.0361 1.92962L9.93904 2.04158L2.58433 9.36674L9.93898 16.6897Z" fill="#1A1A1A"/>
</g>
</svg>
