<svg width="23" height="19" viewBox="0 0 23 19" fill="none" xmlns="http://www.w3.org/2000/svg">
<g id="Arrow - Right">
<path id="Stroke 1" d="M0.333008 9.63428C0.333008 9.12802 0.709213 8.70962 1.19731 8.64341L1.33301 8.63428L21.333 8.63428C21.8853 8.63428 22.333 9.08199 22.333 9.63428C22.333 10.1405 21.9568 10.5589 21.4687 10.6251L21.333 10.6343L1.33301 10.6343C0.780723 10.6343 0.333008 10.1866 0.333008 9.63428Z" fill="#1A1A1A"/>
<path id="Stroke 3" d="M12.561 2.31029C12.1697 1.9206 12.1683 1.28744 12.558 0.896076C12.9122 0.540291 13.4677 0.506819 13.8598 0.796448L13.9722 0.89303L22.0389 8.92503C22.3957 9.28035 22.4282 9.83783 22.1362 10.2299L22.0389 10.3422L13.9722 18.3756C13.5809 18.7653 12.9477 18.764 12.558 18.3726C12.2037 18.0169 12.1726 17.4613 12.4639 17.0704L12.561 16.9584L19.9157 9.63326L12.561 2.31029Z" fill="#1A1A1A"/>
</g>
</svg>
