<svg width="25" height="18" viewBox="0 0 25 18" fill="none" xmlns="http://www.w3.org/2000/svg">
<g id="Lozenge">
<path id="Vector" d="M24.2902 4.20078C24.2902 4.20078 24.0559 2.54609 23.334 1.81953C22.4199 0.863281 21.398 0.858594 20.9293 0.802344C17.573 0.558594 12.534 0.558594 12.534 0.558594H12.5246C12.5246 0.558594 7.48555 0.558594 4.1293 0.802344C3.66055 0.858594 2.63867 0.863281 1.72461 1.81953C1.00273 2.54609 0.773047 4.20078 0.773047 4.20078C0.773047 4.20078 0.529297 6.14609 0.529297 8.08672V9.90547C0.529297 11.8461 0.768359 13.7914 0.768359 13.7914C0.768359 13.7914 1.00273 15.4461 1.71992 16.1727C2.63398 17.1289 3.83398 17.0961 4.36836 17.1992C6.29023 17.382 12.5293 17.4383 12.5293 17.4383C12.5293 17.4383 17.573 17.4289 20.9293 17.1898C21.398 17.1336 22.4199 17.1289 23.334 16.1727C24.0559 15.4461 24.2902 13.7914 24.2902 13.7914C24.2902 13.7914 24.5293 11.8508 24.5293 9.90547V8.08672C24.5293 6.14609 24.2902 4.20078 24.2902 4.20078ZM10.0496 12.1133V5.36797L16.5324 8.75234L10.0496 12.1133Z" fill="white"/>
</g>
</svg>
