<svg width="25" height="24" viewBox="0 0 25 24" fill="none" xmlns="http://www.w3.org/2000/svg">
<g id="whatsapp">
<path id="border" fill-rule="evenodd" clip-rule="evenodd" d="M12.2939 22.5C18.0929 22.5 22.7939 17.799 22.7939 12C22.7939 6.20101 18.0929 1.5 12.2939 1.5C6.49496 1.5 1.79395 6.20101 1.79395 12C1.79395 13.8832 2.28969 15.6505 3.1578 17.1787L1.79395 22.5L7.28009 21.2278C8.76998 22.0391 10.4781 22.5 12.2939 22.5ZM12.2939 20.8846C17.2008 20.8846 21.1786 16.9068 21.1786 12C21.1786 7.09316 17.2008 3.11538 12.2939 3.11538C7.38711 3.11538 3.40933 7.09316 3.40933 12C3.40933 13.8945 4.00232 15.6506 5.01282 17.0927L4.21702 20.0769L7.25389 19.3177C8.68597 20.3059 10.4224 20.8846 12.2939 20.8846Z" fill="white"/>
<path id="phone" d="M9.66896 7.12406C9.41931 6.62263 9.03634 6.66702 8.64945 6.66702C7.95802 6.66702 6.87988 7.49523 6.87988 9.03661C6.87988 10.2999 7.43653 11.6827 9.31226 13.7512C11.1225 15.7476 13.501 16.7803 15.4756 16.7451C17.4502 16.7099 17.8565 15.0107 17.8565 14.4369C17.8565 14.1825 17.6986 14.0556 17.5899 14.0212C16.917 13.6982 15.6759 13.0965 15.3936 12.9834C15.1112 12.8704 14.9637 13.0233 14.8721 13.1065C14.616 13.3505 14.1084 14.0697 13.9346 14.2315C13.7608 14.3933 13.5017 14.3114 13.3938 14.2502C12.997 14.091 11.9211 13.6124 11.0635 12.7811C10.0029 11.753 9.94069 11.3992 9.74087 11.0844C9.58101 10.8325 9.69832 10.6779 9.75685 10.6104C9.98537 10.3467 10.3009 9.93964 10.4424 9.73734C10.5839 9.53505 10.4716 9.22791 10.4042 9.03661C10.1143 8.2139 9.86868 7.52521 9.66896 7.12406Z" fill="white"/>
</g>
</svg>
