<svg width="25" height="24" viewBox="0 0 25 24" fill="none" xmlns="http://www.w3.org/2000/svg">
<g id="Group">
<path id="Vector" d="M12.7646 2.16094C15.9709 2.16094 16.3506 2.175 17.6115 2.23125C18.7834 2.28281 19.4162 2.47969 19.8381 2.64375C20.3959 2.85938 20.799 3.12188 21.2162 3.53906C21.6381 3.96094 21.8959 4.35938 22.1115 4.91719C22.2756 5.33906 22.4725 5.97656 22.524 7.14375C22.5803 8.40937 22.5943 8.78906 22.5943 11.9906C22.5943 15.1969 22.5803 15.5766 22.524 16.8375C22.4725 18.0094 22.2756 18.6422 22.1115 19.0641C21.8959 19.6219 21.6334 20.025 21.2162 20.4422C20.7943 20.8641 20.3959 21.1219 19.8381 21.3375C19.4162 21.5016 18.7787 21.6984 17.6115 21.75C16.3459 21.8062 15.9662 21.8203 12.7646 21.8203C9.5584 21.8203 9.17871 21.8062 7.91777 21.75C6.7459 21.6984 6.11309 21.5016 5.69121 21.3375C5.1334 21.1219 4.73027 20.8594 4.31309 20.4422C3.89121 20.0203 3.6334 19.6219 3.41777 19.0641C3.25371 18.6422 3.05684 18.0047 3.00527 16.8375C2.94902 15.5719 2.93496 15.1922 2.93496 11.9906C2.93496 8.78438 2.94902 8.40469 3.00527 7.14375C3.05684 5.97187 3.25371 5.33906 3.41777 4.91719C3.6334 4.35938 3.8959 3.95625 4.31309 3.53906C4.73496 3.11719 5.1334 2.85938 5.69121 2.64375C6.11309 2.47969 6.75059 2.28281 7.91777 2.23125C9.17871 2.175 9.5584 2.16094 12.7646 2.16094ZM12.7646 0C9.50684 0 9.09902 0.0140625 7.81934 0.0703125C6.54434 0.126563 5.66777 0.332812 4.9084 0.628125C4.11621 0.9375 3.4459 1.34531 2.78027 2.01562C2.10996 2.68125 1.70215 3.35156 1.39277 4.13906C1.09746 4.90313 0.891211 5.775 0.834961 7.05C0.778711 8.33437 0.764648 8.74219 0.764648 12C0.764648 15.2578 0.778711 15.6656 0.834961 16.9453C0.891211 18.2203 1.09746 19.0969 1.39277 19.8563C1.70215 20.6484 2.10996 21.3188 2.78027 21.9844C3.4459 22.65 4.11621 23.0625 4.90371 23.3672C5.66777 23.6625 6.53965 23.8687 7.81465 23.925C9.09434 23.9812 9.50215 23.9953 12.76 23.9953C16.0178 23.9953 16.4256 23.9812 17.7053 23.925C18.9803 23.8687 19.8568 23.6625 20.6162 23.3672C21.4037 23.0625 22.074 22.65 22.7396 21.9844C23.4053 21.3188 23.8178 20.6484 24.1225 19.8609C24.4178 19.0969 24.624 18.225 24.6803 16.95C24.7365 15.6703 24.7506 15.2625 24.7506 12.0047C24.7506 8.74688 24.7365 8.33906 24.6803 7.05938C24.624 5.78438 24.4178 4.90781 24.1225 4.14844C23.8271 3.35156 23.4193 2.68125 22.749 2.01562C22.0834 1.35 21.4131 0.9375 20.6256 0.632812C19.8615 0.3375 18.9896 0.13125 17.7146 0.075C16.4303 0.0140625 16.0225 0 12.7646 0Z" fill="white"/>
<path id="Vector_2" d="M12.7646 5.83594C9.36152 5.83594 6.60059 8.59688 6.60059 12C6.60059 15.4031 9.36152 18.1641 12.7646 18.1641C16.1678 18.1641 18.9287 15.4031 18.9287 12C18.9287 8.59688 16.1678 5.83594 12.7646 5.83594ZM12.7646 15.9984C10.5568 15.9984 8.76621 14.2078 8.76621 12C8.76621 9.79219 10.5568 8.00156 12.7646 8.00156C14.9725 8.00156 16.7631 9.79219 16.7631 12C16.7631 14.2078 14.9725 15.9984 12.7646 15.9984Z" fill="white"/>
<path id="Vector_3" d="M20.6115 5.59141C20.6115 6.38828 19.9646 7.03047 19.1725 7.03047C18.3756 7.03047 17.7334 6.3836 17.7334 5.59141C17.7334 4.79453 18.3803 4.15234 19.1725 4.15234C19.9646 4.15234 20.6115 4.79922 20.6115 5.59141Z" fill="white"/>
</g>
</svg>
