<svg width="18" height="18" viewBox="0 0 18 18" fill="none" xmlns="http://www.w3.org/2000/svg">
<g id="icon/language">
<path id="Vector" d="M16.5 9C16.5 13.1421 13.1421 16.5 9 16.5M16.5 9C16.5 4.85786 13.1421 1.5 9 1.5M16.5 9C16.5 7.75736 13.1421 6.75 9 6.75C4.85786 6.75 1.5 7.75736 1.5 9M16.5 9C16.5 10.2426 13.1421 11.25 9 11.25C4.85786 11.25 1.5 10.2426 1.5 9M9 16.5C4.85786 16.5 1.5 13.1421 1.5 9M9 16.5C10.6569 16.5 12 13.1421 12 9C12 4.85786 10.6569 1.5 9 1.5M9 16.5C7.34315 16.5 6 13.1421 6 9C6 4.85786 7.34315 1.5 9 1.5M1.5 9C1.5 4.85786 4.85786 1.5 9 1.5" stroke="white"/>
</g>
</svg>
