<svg width="25" height="24" viewBox="0 0 25 24" fill="none" xmlns="http://www.w3.org/2000/svg">
<g id="icon/member">
<path id="Vector" d="M12.6597 10.8702C12.5597 10.8602 12.4397 10.8602 12.3297 10.8702C11.1819 10.8313 10.0944 10.3471 9.29736 9.52019C8.50034 8.69332 8.05647 7.58869 8.05973 6.44023C8.05973 3.99023 10.0397 2.00023 12.4997 2.00023C13.0821 1.98973 13.6609 2.09404 14.203 2.30721C14.7451 2.52039 15.2399 2.83825 15.6592 3.24265C16.0784 3.64705 16.4139 4.13006 16.6465 4.66412C16.8791 5.19818 17.0042 5.77282 17.0147 6.35523C17.0252 6.93765 16.9209 7.51642 16.7077 8.05852C16.4946 8.60062 16.1767 9.09543 15.7723 9.51468C15.3679 9.93394 14.8849 10.2694 14.3508 10.502C13.8168 10.7346 13.2421 10.8597 12.6597 10.8702ZM7.65973 14.5602C5.23973 16.1802 5.23973 18.8202 7.65973 20.4302C10.4097 22.2702 14.9197 22.2702 17.6697 20.4302C20.0897 18.8102 20.0897 16.1702 17.6697 14.5602C14.9297 12.7302 10.4197 12.7302 7.65973 14.5602Z" stroke="#333333" stroke-width="1.5" stroke-linecap="round" stroke-linejoin="round"/>
</g>
</svg>
