<svg width="32" height="33" viewBox="0 0 32 33" fill="none" xmlns="http://www.w3.org/2000/svg">
<g id="icon/invoice">
<path id="Vector" d="M4.3105 31.2373L4.31107 30.7373C2.20719 30.7349 0.502316 29.0301 0.5 26.9263V23.686C0.5 23.5747 0.590142 23.4846 0.701428 23.4846H4.47626H4.97286L4.97625 22.988L5.099 5.00048H5.09901V4.99706C5.09901 3.50532 6.33094 2.27734 7.85572 2.27734H28.7435C28.7796 2.27734 28.8156 2.28746 28.8473 2.307L28.9341 2.36055L29.035 2.37583C30.4465 2.58959 31.4922 3.79928 31.4999 5.22702V15.6379C31.4999 15.7492 31.4098 15.8394 31.2985 15.8394H26.5704H26.0704V16.3394V26.8541C26.0704 26.8541 26.0704 26.8542 26.0704 26.8542C26.0696 28.995 24.3361 30.731 22.1952 30.7349L22.1961 31.2349M4.3105 31.2373V30.7373C4.32485 30.7373 4.33921 30.7358 4.35274 30.733L4.40314 30.7225H4.45462H21.8821H21.8999L21.9176 30.7238C22.0137 30.7306 22.1059 30.7349 22.1961 30.7349V31.2349M4.3105 31.2373C1.93085 31.2346 0.00246596 29.3062 0 26.9266L4.45462 31.2225C4.40722 31.2324 4.35872 31.2373 4.3105 31.2373ZM22.1961 31.2349C24.6127 31.2305 26.5696 29.2709 26.5704 26.8542L22.1961 31.2349ZM1.40286 26.9268V24.8877V24.3877H1.90286H17.3218H17.8218V24.8877V26.8545L1.40286 26.9268ZM1.40286 26.9268C1.40477 28.4563 2.59008 29.7235 4.11596 29.8273L1.40286 26.9268ZM0.902856 26.9268L0.902857 26.9275C0.905104 28.7196 2.29398 30.2045 4.08201 30.3262L4.13662 30.3299L4.19075 30.3217C4.19813 30.3206 4.20685 30.3198 4.21722 30.3197H18.9799H20.1221L19.3473 29.4805C18.6871 28.7655 18.321 27.8281 18.3218 26.8549V26.8545V24.3877V23.8877H17.8218H1.40286H0.902857V24.3877L0.902856 26.9268ZM25.6676 5.22558V5.22539C25.6673 4.59599 25.8759 3.98414 26.2603 3.48548L26.8811 2.6802H25.8643H7.8575C6.56803 2.67153 5.51478 3.7078 5.50189 4.997L5.50188 4.99858L5.37913 22.9812L5.3757 23.4846H5.87912H18.5232C18.6343 23.4846 18.7246 23.5749 18.7246 23.686L18.7246 26.8548L18.7246 26.8581C18.7365 28.6492 20.0986 30.142 21.8811 30.3175L21.9055 30.32H21.93H22.1744C22.1865 30.3201 22.1969 30.3211 22.2058 30.3227L22.2562 30.3315L22.3073 30.3298C23.1946 30.3016 24.0366 29.9308 24.6568 29.2958C25.3027 28.6476 25.666 27.7704 25.6676 26.8551V26.8542V5.22558ZM30.5971 15.4365H31.0971V14.9365V5.22558H31.0971L31.097 5.21722C31.0741 3.84533 29.9556 2.74569 28.5837 2.74569C27.2119 2.74569 26.0934 3.84533 26.0705 5.21723L26.0704 5.21722V5.22558V14.9365V15.4365H26.5704H30.5971Z" fill="#999999" stroke="#999999"/>
<g id="Vector_2">
<mask id="path-2-inside-1_1171_24229" fill="white">
<path d="M9.00612 9.37649H15.6494C16.0368 9.37649 16.3508 9.06249 16.3508 8.67506C16.3508 8.28763 16.0368 7.97363 15.6494 7.97363H9.00612C8.61869 7.97363 8.30469 8.28763 8.30469 8.67506C8.30469 9.06249 8.61869 9.37649 9.00612 9.37649Z"/>
</mask>
<path d="M9.00612 9.37649H15.6494C16.0368 9.37649 16.3508 9.06249 16.3508 8.67506C16.3508 8.28763 16.0368 7.97363 15.6494 7.97363H9.00612C8.61869 7.97363 8.30469 8.28763 8.30469 8.67506C8.30469 9.06249 8.61869 9.37649 9.00612 9.37649Z" fill="#999999"/>
<path d="M9.00612 10.8765H15.6494V7.87649H9.00612V10.8765ZM15.6494 10.8765C16.8653 10.8765 17.8508 9.89092 17.8508 8.67506H14.8508C14.8508 8.23406 15.2084 7.87649 15.6494 7.87649V10.8765ZM17.8508 8.67506C17.8508 7.4592 16.8653 6.47363 15.6494 6.47363V9.47363C15.2084 9.47363 14.8508 9.11606 14.8508 8.67506H17.8508ZM15.6494 6.47363H9.00612V9.47363H15.6494V6.47363ZM9.00612 6.47363C7.79026 6.47363 6.80469 7.4592 6.80469 8.67506H9.80469C9.80469 9.11606 9.44711 9.47363 9.00612 9.47363V6.47363ZM6.80469 8.67506C6.80469 9.89092 7.79026 10.8765 9.00612 10.8765V7.87649C9.44711 7.87649 9.80469 8.23406 9.80469 8.67506H6.80469Z" fill="#999999" mask="url(#path-2-inside-1_1171_24229)"/>
</g>
<path id="Vector_3" d="M21.3984 12.9888H9.00612C8.61869 12.9888 8.30469 13.3028 8.30469 13.6902C8.30469 14.0774 8.61869 14.3916 9.00612 14.3916H21.3984C21.7858 14.3916 22.0998 14.0774 22.0998 13.6902C22.0998 13.3028 21.7858 12.9888 21.3984 12.9888Z" fill="#999999"/>
<path id="Vector_4" d="M21.3984 18.0039H9.00612C8.61869 18.0039 8.30469 18.3182 8.30469 18.7053C8.30469 19.0928 8.61869 19.4068 9.00612 19.4068H21.3984C21.7858 19.4068 22.0998 19.0928 22.0998 18.7053C22.0998 18.3182 21.7858 18.0039 21.3984 18.0039Z" fill="#999999"/>
</g>
</svg>
