<svg width="32" height="33" viewBox="0 0 32 33" fill="none" xmlns="http://www.w3.org/2000/svg">
<g id="icon/map">
<g id="Icon">
<path d="M28 13.8335C28 23.1668 16 31.1668 16 31.1668C16 31.1668 4 23.1668 4 13.8335C4 10.6509 5.26428 7.59865 7.51472 5.34821C9.76516 3.09778 12.8174 1.8335 16 1.8335C19.1826 1.8335 22.2348 3.09778 24.4853 5.34821C26.7357 7.59865 28 10.6509 28 13.8335Z" stroke="#999999" stroke-width="1.5" stroke-linecap="round" stroke-linejoin="round"/>
<path d="M16 17.8335C18.2091 17.8335 20 16.0426 20 13.8335C20 11.6244 18.2091 9.8335 16 9.8335C13.7909 9.8335 12 11.6244 12 13.8335C12 16.0426 13.7909 17.8335 16 17.8335Z" stroke="#999999" stroke-width="1.5" stroke-linecap="round" stroke-linejoin="round"/>
</g>
</g>
</svg>
