<svg width="33" height="32" viewBox="0 0 33 32" fill="none" xmlns="http://www.w3.org/2000/svg">
<g id="icon/invoice" clip-path="url(#clip0_1168_21399)">
<path id="Vector" d="M4.8105 30.7373L4.81107 30.2373C2.70719 30.2349 1.00232 28.5301 1 26.4263V23.186C1 23.0747 1.09014 22.9846 1.20143 22.9846H4.97626H5.47286L5.47625 22.488L5.599 4.50048H5.59901V4.49706C5.59901 3.00532 6.83094 1.77734 8.35572 1.77734H29.2435C29.2796 1.77734 29.3156 1.78746 29.3473 1.807L29.4341 1.86055L29.535 1.87583C30.9465 2.08959 31.9922 3.29928 31.9999 4.72702V15.1379C31.9999 15.2492 31.9098 15.3394 31.7985 15.3394H27.0704H26.5704V15.8394V26.3541C26.5704 26.3541 26.5704 26.3542 26.5704 26.3542C26.5696 28.495 24.8361 30.231 22.6952 30.2349L22.6961 30.7349M4.8105 30.7373V30.2373C4.82485 30.2373 4.83921 30.2358 4.85274 30.233L4.90314 30.2225H4.95462H22.3821H22.3999L22.4176 30.2238C22.5137 30.2306 22.6059 30.2349 22.6961 30.2349V30.7349M4.8105 30.7373C2.43085 30.7346 0.502466 28.8062 0.5 26.4266L4.95462 30.7225C4.90722 30.7324 4.85872 30.7373 4.8105 30.7373ZM22.6961 30.7349C25.1127 30.7305 27.0696 28.7709 27.0704 26.3542L22.6961 30.7349ZM1.90286 26.4268V24.3877V23.8877H2.40286H17.8218H18.3218V24.3877V26.3545L1.90286 26.4268ZM1.90286 26.4268C1.90477 27.9563 3.09008 29.2235 4.61596 29.3273L1.90286 26.4268ZM1.40286 26.4268L1.40286 26.4275C1.4051 28.2196 2.79398 29.7045 4.58201 29.8262L4.63662 29.8299L4.69075 29.8217C4.69813 29.8206 4.70685 29.8198 4.71722 29.8197H19.4799H20.6221L19.8473 28.9805C19.1871 28.2655 18.821 27.3281 18.8218 26.3549V26.3545V23.8877V23.3877H18.3218H1.90286H1.40286V23.8877L1.40286 26.4268ZM26.1676 4.72558V4.72539C26.1673 4.09599 26.3759 3.48414 26.7603 2.98548L27.3811 2.1802H26.3643H8.3575C7.06803 2.17153 6.01478 3.2078 6.00189 4.497L6.00188 4.49858L5.87913 22.4812L5.8757 22.9846H6.37912H19.0232C19.1343 22.9846 19.2246 23.0749 19.2246 23.186L19.2246 26.3548L19.2246 26.3581C19.2365 28.1492 20.5986 29.642 22.3811 29.8175L22.4055 29.82H22.43H22.6744C22.6865 29.8201 22.6969 29.8211 22.7058 29.8227L22.7562 29.8315L22.8073 29.8298C23.6946 29.8016 24.5366 29.4308 25.1568 28.7958C25.8027 28.1476 26.166 27.2704 26.1676 26.3551V26.3542V4.72558ZM31.0971 14.9365H31.5971V14.4365V4.72558H31.5971L31.597 4.71722C31.5741 3.34533 30.4556 2.24569 29.0837 2.24569C27.7119 2.24569 26.5934 3.34533 26.5705 4.71723L26.5704 4.71722V4.72558V14.4365V14.9365H27.0704H31.0971Z" fill="#999999" stroke="#999999"/>
<g id="Vector_2">
<mask id="path-2-inside-1_1168_21399" fill="white">
<path d="M9.50612 8.87649H16.1494C16.5368 8.87649 16.8508 8.56249 16.8508 8.17506C16.8508 7.78763 16.5368 7.47363 16.1494 7.47363H9.50612C9.11869 7.47363 8.80469 7.78763 8.80469 8.17506C8.80469 8.56249 9.11869 8.87649 9.50612 8.87649Z"/>
</mask>
<path d="M9.50612 8.87649H16.1494C16.5368 8.87649 16.8508 8.56249 16.8508 8.17506C16.8508 7.78763 16.5368 7.47363 16.1494 7.47363H9.50612C9.11869 7.47363 8.80469 7.78763 8.80469 8.17506C8.80469 8.56249 9.11869 8.87649 9.50612 8.87649Z" fill="#999999"/>
<path d="M9.50612 10.3765H16.1494V7.37649H9.50612V10.3765ZM16.1494 10.3765C17.3653 10.3765 18.3508 9.39092 18.3508 8.17506H15.3508C15.3508 7.73406 15.7084 7.37649 16.1494 7.37649V10.3765ZM18.3508 8.17506C18.3508 6.9592 17.3653 5.97363 16.1494 5.97363V8.97363C15.7084 8.97363 15.3508 8.61606 15.3508 8.17506H18.3508ZM16.1494 5.97363H9.50612V8.97363H16.1494V5.97363ZM9.50612 5.97363C8.29026 5.97363 7.30469 6.9592 7.30469 8.17506H10.3047C10.3047 8.61606 9.94711 8.97363 9.50612 8.97363V5.97363ZM7.30469 8.17506C7.30469 9.39092 8.29026 10.3765 9.50612 10.3765V7.37649C9.94711 7.37649 10.3047 7.73406 10.3047 8.17506H7.30469Z" fill="#999999" mask="url(#path-2-inside-1_1168_21399)"/>
</g>
<path id="Vector_3" d="M21.8984 12.4888H9.50612C9.11869 12.4888 8.80469 12.8028 8.80469 13.1902C8.80469 13.5774 9.11869 13.8916 9.50612 13.8916H21.8984C22.2858 13.8916 22.5998 13.5774 22.5998 13.1902C22.5998 12.8028 22.2858 12.4888 21.8984 12.4888Z" fill="#999999"/>
<path id="Vector_4" d="M21.8984 17.5039H9.50612C9.11869 17.5039 8.80469 17.8182 8.80469 18.2053C8.80469 18.5928 9.11869 18.9068 9.50612 18.9068H21.8984C22.2858 18.9068 22.5998 18.5928 22.5998 18.2053C22.5998 17.8182 22.2858 17.5039 21.8984 17.5039Z" fill="#999999"/>
</g>
<defs>
<clipPath id="clip0_1168_21399">
<rect width="32" height="32" fill="white" transform="translate(0.5)"/>
</clipPath>
</defs>
</svg>
