<svg width="28" height="28" viewBox="0 0 28 28" fill="none" xmlns="http://www.w3.org/2000/svg">
<g id="Group">
<g id="Group_2">
<g id="ngicon">
<path id="Vector" fill-rule="evenodd" clip-rule="evenodd" d="M16.424 25.3515C15.6414 25.5168 14.83 25.6041 13.9987 25.6041C7.55937 25.6041 2.33203 20.3768 2.33203 13.9375C2.33203 13.3855 1.88403 12.9375 1.33203 12.9375C0.780031 12.9375 0.332031 13.3855 0.332031 13.9375C0.332031 21.4801 6.45603 27.6041 13.9987 27.6041C14.972 27.6041 15.922 27.5021 16.838 27.3081C17.378 27.1935 17.724 26.6628 17.6094 26.1228C17.4954 25.5828 16.964 25.2368 16.424 25.3515ZM15.642 2.38547C21.304 3.1848 25.6654 8.05614 25.6654 13.9375C25.6654 18.0975 23.4827 21.7522 20.202 23.8182C19.7347 24.1122 19.5947 24.7301 19.8887 25.1968C20.1827 25.6641 20.8007 25.8041 21.2674 25.5101C25.1107 23.0908 27.6654 18.8101 27.6654 13.9375C27.6654 7.04747 22.5547 1.34147 15.9214 0.405471C15.3747 0.328137 14.8687 0.709467 14.7914 1.25547C14.714 1.80213 15.0954 2.3088 15.642 2.38547ZM3.17203 9.58546C4.42203 6.48213 6.96803 4.03814 10.138 2.92547C10.6594 2.7428 10.9334 2.17148 10.7507 1.65081C10.568 1.13015 9.9967 0.855474 9.47603 1.03814C5.7627 2.34147 2.7807 5.20415 1.3167 8.83815C1.1107 9.35015 1.3587 9.93348 1.8707 10.1395C2.3827 10.3461 2.96536 10.0975 3.17203 9.58546Z" fill="#999999"/>
</g>
</g>
</g>
</svg>
