<svg width="141" height="140" viewBox="0 0 141 140" fill="none" xmlns="http://www.w3.org/2000/svg">
<g id="icon/logo">
<circle id="Ellipse 671" cx="70.5" cy="70" r="70" fill="white"/>
<g id="Asset 2 2" clip-path="url(#clip0_780_14662)">
<g id="Layer 2">
<g id="Layer 1">
<path id="Vector" d="M42.1752 116.412C42.1679 115.916 42.2634 115.423 42.4557 114.965C42.6308 114.551 42.8879 114.178 43.2117 113.866C43.5354 113.555 43.9189 113.312 44.3391 113.153C44.7741 112.988 45.2361 112.905 45.7016 112.908C46.0447 112.903 46.3872 112.94 46.7212 113.019C46.9833 113.08 47.2396 113.163 47.487 113.269C47.7121 113.364 47.9269 113.482 48.1282 113.621L47.0774 115.473C46.9705 115.393 46.8503 115.317 46.7256 115.241C46.594 115.181 46.4587 115.129 46.3204 115.085C46.1457 115.033 45.9641 115.008 45.7817 115.01C45.5863 115.009 45.3927 115.047 45.2118 115.121C45.0457 115.193 44.8947 115.296 44.7665 115.424C44.6356 115.55 44.5311 115.702 44.4593 115.869C44.3862 116.041 44.3483 116.226 44.348 116.412C44.3475 116.601 44.3869 116.788 44.4638 116.96C44.5399 117.127 44.6472 117.278 44.7799 117.405C44.9165 117.535 45.0767 117.638 45.2519 117.708C45.4407 117.781 45.6416 117.817 45.844 117.815C46.037 117.818 46.2292 117.791 46.414 117.735C46.5596 117.691 46.6999 117.631 46.8325 117.557C46.9619 117.487 47.0804 117.398 47.1842 117.294L48.235 119.151C48.0397 119.308 47.824 119.438 47.5939 119.538C47.3442 119.645 47.0867 119.733 46.8236 119.801C46.4859 119.885 46.1387 119.926 45.7906 119.921C45.2977 119.927 44.8082 119.839 44.348 119.663C43.924 119.504 43.5364 119.262 43.2082 118.95C42.8838 118.636 42.6276 118.259 42.4557 117.842C42.2688 117.388 42.1734 116.903 42.1752 116.412Z" fill="#0596A6"/>
<path id="Vector_2" d="M50.4834 113.068H52.7096V117.997H54.553V119.752H50.4834V113.068Z" fill="#0596A6"/>
<path id="Vector_3" d="M56.9043 113.068H60.8403V114.823H59.0593V115.548H60.8403V117.214H59.0593V117.984H60.9338V119.738H56.9266L56.9043 113.068Z" fill="#0596A6"/>
<path id="Vector_4" d="M65.5999 113.068H67.2028L69.7362 119.747H67.6347L67.412 119.146H65.3906L65.168 119.747H63.0664L65.5999 113.068ZM66.8421 117.677L66.3969 116.506L65.9516 117.677H66.8421Z" fill="#0596A6"/>
<path id="Vector_5" d="M71.8909 113.068H73.6451L75.4885 115.642V113.068H77.5811V119.747H75.8001L73.9657 117.187V119.752H71.873L71.8909 113.068Z" fill="#0596A6"/>
<path id="Vector_6" d="M80.2842 113.068H82.5505V119.747H80.2842V113.068Z" fill="#0596A6"/>
<path id="Vector_7" d="M85.2532 113.068H87.0074L88.8508 115.642V113.068H90.9434V119.747H89.1624L87.3325 117.182V119.747H85.2354L85.2532 113.068Z" fill="#0596A6"/>
<path id="Vector_8" d="M97.9075 115.344C97.7777 115.231 97.6262 115.146 97.4622 115.094C97.2906 115.041 97.1121 115.012 96.9324 115.01C96.7487 115.007 96.5666 115.044 96.3981 115.117C96.2417 115.184 96.1008 115.282 95.984 115.406C95.8641 115.535 95.7704 115.686 95.708 115.851C95.6409 116.031 95.6077 116.221 95.61 116.412C95.6085 116.604 95.6448 116.795 95.7169 116.973C95.7865 117.141 95.8895 117.292 96.0196 117.418C96.1476 117.544 96.2988 117.644 96.4649 117.712C96.6393 117.781 96.8251 117.816 97.0125 117.815C97.2272 117.817 97.4392 117.768 97.6314 117.672C97.8172 117.575 97.9809 117.44 98.1123 117.276H97.5112V115.873H100.085V118.1C99.936 118.372 99.7519 118.624 99.5371 118.848C99.3239 119.069 99.083 119.262 98.8202 119.422C98.5512 119.584 98.2624 119.709 97.9609 119.796C97.652 119.882 97.333 119.925 97.0125 119.925C96.5446 119.929 96.081 119.836 95.6501 119.654C95.2334 119.482 94.8539 119.231 94.5325 118.915C94.2109 118.597 93.9552 118.218 93.78 117.801C93.5948 117.363 93.5008 116.892 93.504 116.417C93.5018 115.496 93.8505 114.609 94.4791 113.937C94.7878 113.619 95.1553 113.365 95.561 113.189C95.9819 113.004 96.4371 112.91 96.8968 112.913C97.2238 112.906 97.5503 112.944 97.8674 113.024C98.1069 113.083 98.3397 113.166 98.562 113.273C98.7593 113.366 98.9434 113.484 99.1097 113.625L97.9075 115.344Z" fill="#0596A6"/>
<path id="Vector_9" d="M62.5052 127.633C62.517 128.039 62.4347 128.443 62.2648 128.812C62.1118 129.123 61.8857 129.392 61.6058 129.596C61.3137 129.805 60.9842 129.956 60.6351 130.041C60.2433 130.138 59.841 130.186 59.4374 130.184V131.778H57.3047V125.099H59.4374C59.8408 125.096 60.2431 125.142 60.6351 125.237C60.9842 125.322 61.3137 125.473 61.6058 125.682C61.8869 125.887 62.1132 126.158 62.2648 126.47C62.4322 126.834 62.5144 127.232 62.5052 127.633ZM59.4374 128.376H59.5265C59.6354 128.387 59.7454 128.375 59.8495 128.341C59.9537 128.307 60.0498 128.252 60.132 128.18C60.253 128.024 60.3186 127.832 60.3186 127.635C60.3186 127.437 60.253 127.245 60.132 127.089C60.0502 127.016 59.9542 126.961 59.8499 126.928C59.7456 126.894 59.6355 126.882 59.5265 126.893H59.4374V128.376Z" fill="#0596A6"/>
<path id="Vector_10" d="M66.1922 125.09H67.7951L70.3286 131.769H68.2225L68.0044 131.168H65.9785L65.7603 131.769H63.6543L66.1922 125.09ZM67.4434 129.698L66.9981 128.527L66.5529 129.698H67.4434Z" fill="#0596A6"/>
<path id="Vector_11" d="M77.6794 127.633C77.6913 128.039 77.609 128.443 77.439 128.812C77.2878 129.123 77.0631 129.392 76.7845 129.596C76.4924 129.805 76.1629 129.956 75.8139 130.041C75.422 130.138 75.0197 130.186 74.6161 130.184V131.778H72.4834V125.099H74.6161C75.0195 125.096 75.4218 125.142 75.8139 125.237C76.1629 125.322 76.4924 125.473 76.7845 125.682C77.0642 125.887 77.289 126.158 77.439 126.47C77.6064 126.834 77.6887 127.232 77.6794 127.633ZM74.6161 128.376H74.7052C74.8141 128.386 74.9239 128.374 75.028 128.34C75.1321 128.306 75.2282 128.252 75.3107 128.18C75.4317 128.024 75.4973 127.832 75.4973 127.635C75.4973 127.437 75.4317 127.245 75.3107 127.089C75.2288 127.017 75.1327 126.962 75.0285 126.928C74.9243 126.894 74.8142 126.882 74.7052 126.893H74.6161V128.376Z" fill="#0596A6"/>
<path id="Vector_12" d="M81.3655 125.09H82.9684L85.5063 131.769H83.4003L83.1821 131.168H81.1562L80.9381 131.769H78.832L81.3655 125.09ZM82.6211 129.698L82.1758 128.527L81.7306 129.698H82.6211Z" fill="#0596A6"/>
<path id="Vector_13" d="M52.8698 97.155V96.5094H55.5725C56.1825 96.5094 56.6322 96.5094 57.1353 96.5628V95.187C56.7568 95.2227 56.2181 95.2405 55.5369 95.2405H52.8654V94.5904H55.6437C56.3005 94.5791 56.9575 94.6029 57.6117 94.6616V92.5645C56.9334 92.6433 56.2508 92.6789 55.568 92.6714H52.8698C52.8595 92.3056 52.8894 91.9398 52.9589 91.5805H50.1449C50.2152 91.9397 50.2451 92.3056 50.234 92.6714H47.794C47.1186 92.6789 46.4434 92.6432 45.7726 92.5645V93.1567C44.977 92.5643 44.1507 92.0143 43.297 91.5093L41.5961 93.4773C42.7343 94.1868 43.8019 95.0039 44.7841 95.9172L45.7726 94.6616C46.4265 94.5971 47.0837 94.5733 47.7406 94.5904H50.234V95.2405H47.7762C47.1706 95.2405 46.6319 95.2405 46.0931 95.187V96.5851C46.658 96.5246 47.226 96.4993 47.794 96.5094H50.234V97.155H47.6693C46.9625 97.1748 46.2552 97.1376 45.5544 97.0437V97.7784C44.6261 97.0842 43.6501 96.4564 42.6336 95.8994L41.0752 97.9609C42.2523 98.6591 43.3679 99.456 44.4101 100.343L45.5544 98.66V99.1765C46.1288 99.123 46.7566 99.0874 47.6515 99.0874H55.9688C56.6394 99.0704 57.3103 99.1001 57.9768 99.1765V97.0615C57.299 97.1457 56.6158 97.177 55.9331 97.155H52.8698Z" fill="#0596A6"/>
<path id="Vector_14" d="M48.2082 99.5195C47.6348 99.532 47.0611 99.5142 46.4895 99.4661C46.5405 100.049 46.5584 100.635 46.543 101.22V106.078C46.5545 106.845 46.5173 107.613 46.4316 108.375H49.2278C49.1486 107.612 49.113 106.845 49.1209 106.078V105.45H53.9964V105.793C53.9964 106.114 53.8895 106.185 53.3152 106.185C52.6144 106.18 51.9144 106.138 51.2181 106.06C51.5947 106.735 51.8324 107.478 51.9171 108.246C53.1015 108.3 53.3508 108.318 53.8361 108.318C55.1719 108.318 55.7017 108.193 56.147 107.765C56.3418 107.558 56.4905 107.311 56.5834 107.042C56.6762 106.772 56.7111 106.486 56.6857 106.203V101.238C56.6761 100.653 56.6999 100.067 56.7569 99.4839C56.2271 99.5326 55.6949 99.5505 55.163 99.5373L48.2082 99.5195ZM53.9964 103.874H49.1209V103.353H53.9964V103.874ZM53.9964 101.795H49.1209V101.3H53.9964V101.795Z" fill="#0596A6"/>
<path id="Vector_15" d="M41.1465 106.367L43.5286 108.424C44.4747 106.529 45.2209 104.54 45.7548 102.489L43.4796 100.895C42.7583 103.464 41.8633 105.597 41.1465 106.367Z" fill="#0596A6"/>
<path id="Vector_16" d="M73.9658 105.722C75.1534 106.897 76.5769 107.808 78.1422 108.393C78.5569 107.633 79.0493 106.919 79.6116 106.26C77.6569 105.686 77.0647 105.397 75.9205 104.502L73.9658 105.722Z" fill="#0596A6"/>
<path id="Vector_17" d="M73.8772 104.417C75.3109 104.346 75.3109 104.346 76.9939 104.221C77.1542 104.542 77.2254 104.666 77.4391 105.112L79.5184 103.66C78.8948 102.55 78.1609 101.506 77.3278 100.543L75.3019 101.746L75.7828 102.356C74.9947 102.356 74.3491 102.409 73.9039 102.409C74.4382 101.964 74.7454 101.71 75.1906 101.278C75.6359 100.846 75.9476 100.615 76.1613 100.454L74.0107 99.3992C73.3301 100.231 72.5745 100.999 71.7533 101.692L71.2413 101.3C71.8207 100.795 72.3652 100.25 72.8709 99.6708L71.2591 99.043C71.9937 98.9361 72.0472 98.9361 72.7462 98.8114V98.1836C73.3151 98.5308 73.8437 98.94 74.3224 99.4036C74.7502 98.9628 75.1023 98.4543 75.3643 97.8987C75.4875 98.4042 75.565 98.9198 75.5958 99.4392C75.8577 99.4655 76.1207 99.4774 76.3839 99.4749C77.9957 99.4749 78.5879 99.2077 78.8951 98.3083C79.1266 97.6093 79.2869 95.944 79.3938 93.2547C79.3938 92.716 79.3938 92.6626 79.4517 92.0704C78.9149 92.1281 78.3751 92.1519 77.8354 92.1416H75.0927C74.4534 92.1444 73.8144 92.1146 73.1781 92.0526V94.5281C73.4631 94.4925 73.6234 94.4925 73.9128 94.4747C73.8415 95.855 73.5343 96.6787 72.7462 97.538V97.1462C72.0294 97.2174 72.0294 97.2175 71.1166 97.2887V96.7499H71.3481C72.154 96.7499 72.2787 96.7499 72.7462 96.7856V94.9556C72.282 95.0058 71.8149 95.0251 71.3481 95.0135H71.081V94.4391H71.4016C71.8801 94.4215 72.3593 94.4393 72.8353 94.4925V92.3776C72.3428 92.4478 71.8455 92.4775 71.3481 92.4667H71.0231C71.0356 92.1682 71.0668 91.8707 71.1166 91.5762H68.5164C68.583 91.8689 68.6247 92.1668 68.641 92.4667H68.2848C67.7934 92.479 67.3018 92.4492 66.8155 92.3776V93.1301C66.1996 92.4993 65.514 91.9406 64.7718 91.4648L62.835 93.2859C63.7644 93.9277 64.5967 94.7 65.3061 95.5789L66.8333 93.9315V94.4881C67.3092 94.4336 67.7885 94.4157 68.267 94.4346H68.7123V95.009H68.4451C67.9724 95.0307 67.4986 95.0113 67.0292 94.9511V96.7989C67.4813 96.7455 67.9368 96.7277 68.3917 96.7455H68.7479V97.4445C67.657 97.4801 67.6214 97.4801 67.4745 97.498C67.1717 97.498 66.9936 97.498 66.8333 97.498C66.7548 97.5045 66.6759 97.5045 66.5973 97.498L66.722 98.1079C66.0388 97.353 65.2553 96.6953 64.3934 96.1533L62.5322 97.912C63.5045 98.5608 64.3684 99.3587 65.0924 100.276L66.7977 98.4285L67.0649 99.7019C67.7283 99.5773 67.7283 99.5773 70.5601 99.1454C70.2871 99.5512 69.969 99.9246 69.6117 100.258L68.7835 99.7376L67.1539 101.242C67.8975 101.604 68.6214 102.006 69.3223 102.445C68.4546 102.46 67.5867 102.43 66.722 102.356L66.958 104.72C67.504 104.648 68.0548 104.618 68.6054 104.631H68.9126C68.2136 105.348 67.3676 105.851 65.8805 106.443C66.4831 107.025 66.9962 107.692 67.4032 108.424C68.8033 107.762 70.0591 106.83 71.0988 105.682L69.1976 104.604L71.2947 104.515V106.612C71.3082 107.218 71.2784 107.823 71.2057 108.424H73.9662C73.8929 107.823 73.8632 107.218 73.8772 106.612V104.417ZM76.1524 94.4703H76.8692C76.8598 95.1963 76.8002 95.9208 76.6911 96.6386C76.6377 97.0483 76.5086 97.1774 76.2058 97.1774C76.1167 97.1774 75.9743 97.1774 75.667 97.1239C75.9666 96.2687 76.1304 95.3718 76.1524 94.4658V94.4703Z" fill="#0596A6"/>
<path id="Vector_18" d="M64.3753 100.935C63.8722 103.527 63.28 105.308 62.5498 106.456L64.8785 108.335C65.199 107.565 65.3816 107.084 65.4528 106.884C65.9413 105.468 66.3004 104.01 66.5259 102.529L64.3753 100.935Z" fill="#0596A6"/>
<path id="Vector_19" d="M98.6509 102.471C98.6584 103.466 98.572 104.459 98.3927 105.437C98.2814 105.682 97.9474 105.797 96.2243 105.797C95.472 105.811 94.7196 105.778 93.9714 105.699C93.7844 105.65 93.7844 105.65 93.7844 105.343V100.966H98.593C99.1808 100.966 99.7062 100.989 100.156 101.033L100.53 101.073L100.485 100.699C100.427 100.14 100.404 99.5782 100.414 99.0162V94.0517C100.414 93.4373 100.414 92.9386 100.485 92.431L100.521 92.0659L100.151 92.106C99.6219 92.1606 99.0897 92.1844 98.5574 92.1772H93.2144C92.6674 92.1815 92.1205 92.1577 91.5759 92.106L91.2197 92.0704L91.2509 92.4266C91.2865 92.8718 91.3221 93.3171 91.3221 93.9271V106.042C91.3221 107.908 92.2794 108.188 95.5832 108.188C99.1006 108.188 100.036 108.05 100.619 106.795C100.926 106.122 101.037 104.377 101.167 102.471H98.6509ZM94.6927 94.5682V98.6823H93.7665V94.5682M96.9901 98.6823V94.5682H97.9341V98.6823H96.9901Z" fill="#0596A6"/>
<path id="Vector_20" d="M90.7158 103.442V94.733C90.7158 93.6421 90.7158 93.3527 90.7514 93.0054L90.7871 92.6448L90.4264 92.6804C90.0613 92.716 89.5359 92.7338 88.8591 92.7338H86.5483C85.9205 92.7338 85.4619 92.7338 85.1057 92.6804L84.7539 92.6448L84.7807 92.9965C84.8163 93.5086 84.8519 94.034 84.8519 94.7775V103.838C84.8519 104.671 84.794 105.517 84.745 106.033L84.7139 106.358H87.2384V104.64H88.3827V105.713H90.8049L90.7692 105.383C90.7163 104.738 90.6984 104.09 90.7158 103.442ZM88.3827 95.0669V102.32H87.2384V95.0669H88.3827Z" fill="#0596A6"/>
<path id="Vector_21" d="M108.838 58.3028C108.143 56.3526 106.798 56.6821 106.856 56.3214C107.257 53.6945 104.554 51.869 102.114 51.4237C100.693 51.1204 99.2101 51.3857 97.9824 52.1628C97.2364 51.7533 96.3628 51.6419 95.538 51.8512C93.757 52.2073 93.236 53.4095 93.2672 54.5805C91.5708 54.4469 90.6313 56.927 90.9564 58.5878C91.2992 60.342 92.488 60.2352 92.3945 60.5379C91.7133 62.7286 93.7837 64.652 95.8096 65.3422C96.9106 65.7628 98.128 65.7628 99.2291 65.3422L99.2558 65.5425C99.2752 65.6926 99.3325 65.8353 99.4223 65.9571C99.5122 66.0789 99.6316 66.1758 99.7693 66.2387C99.907 66.3015 100.058 66.3282 100.209 66.3162C100.36 66.3043 100.506 66.2541 100.632 66.1703C100.814 66.0412 101.999 67.84 104.755 66.8382C106.714 66.1258 107.119 64.6565 106.878 63.3207C108.851 63.1605 109.496 60.1595 108.838 58.3028Z" fill="white" stroke="#0596A6" stroke-width="2" stroke-miterlimit="10"/>
<path id="Vector_22" d="M70.1284 19.17C69.2023 16.5697 67.4124 17.0105 67.4836 16.5252C68.0224 13.0211 64.4203 10.5633 61.1655 9.97558C59.2696 9.57317 57.2914 9.92789 55.6534 10.964C54.6582 10.4144 53.4906 10.2663 52.3897 10.55C50.0388 11.0219 49.3219 12.6293 49.3665 14.1921C47.1002 14.0095 45.849 17.3088 46.2854 19.5351C46.7306 21.8771 48.3246 21.7301 48.1999 22.1353C47.3094 25.0606 50.0522 27.6252 52.7548 28.5469C54.2276 29.0993 55.8523 29.0898 57.3186 28.5202L57.3498 28.7873C57.3753 28.9876 57.4515 29.1782 57.5711 29.3409C57.6907 29.5036 57.8498 29.6332 58.0333 29.7174C58.2169 29.8016 58.4189 29.8377 58.6202 29.8222C58.8216 29.8067 59.0157 29.7401 59.1842 29.6288C59.4246 29.4552 61.0053 31.8551 64.683 30.5193C67.2922 29.571 67.8354 27.6119 67.5148 25.8309C70.1507 25.6528 71.01 21.65 70.1284 19.17Z" fill="white" stroke="#0596A6" stroke-width="2" stroke-miterlimit="10"/>
<path id="Vector_23" d="M81.6374 53.9749C81.5929 54.0684 81.5572 54.1664 81.5172 54.2643C81.5629 54.1703 81.603 54.0737 81.6374 53.9749ZM68.4491 37.6299C69.6023 39.7804 69.9808 42.492 68.5248 44.4644C66.9041 46.6551 63.1551 46.6372 64.0367 46.6283C67.336 48.0531 69.2995 51.0318 68.6851 54.6428C71.4145 50.0256 81.7665 48.7655 81.6374 53.9705C81.7264 50.4085 86.7177 48.5385 90.2351 49.0193C93.855 49.5091 96.9138 52.942 96.7535 56.5885C97.1187 55.8851 102.751 58.7792 100.235 68.4856C99.2959 72.1054 94.7633 75.2533 91.2547 73.9621C91.1479 73.9221 91.8425 75.7431 88.9038 78.1386C86.9358 79.7325 78.7611 80.2357 75.7868 75.6051C75.2213 77.5286 66.2451 80.2357 57.8478 72.6843C57.4025 72.2702 55.0071 73.9577 52.113 73.2408C49.2189 72.524 45.7459 69.5364 45.5322 65.4757C34.8462 58.1825 41.191 41.8152 45.3051 40.0965C43.1813 40.3949 41.9479 35.8979 44.094 33.0082C47.8965 27.8745 55.7106 26.0534 55.2653 26.1959C53.2083 24.4149 56.6456 22.0061 59.2325 20.9375C64.059 18.9428 66.7127 19.4593 66.7127 19.4593C67.4963 15.8127 75.7467 16.5785 75.9605 18.4842C79.0371 16.7344 82.1939 17.5937 84.8654 18.4842C88.748 19.8199 92.7107 23.4843 91.4061 27.683C91.2236 28.2619 93.5032 28.057 94.1578 31.4142C94.7767 34.6155 92.9823 39.3619 89.732 39.1036C89.7943 41.3299 88.7658 43.6496 85.3908 44.3309C80.6356 45.2837 79.1573 42.0556 78.81 42.2248C78.1644 42.5499 75.5954 43.6274 73.2177 42.7903C70.101 41.6905 69.5133 39.6468 68.4491 37.6299ZM68.4491 37.6299C68.3587 37.508 68.2605 37.392 68.1553 37.2826L68.4491 37.6299Z" fill="#0596A6"/>
<path id="Vector_24" d="M60.3727 70.6452C59.2774 67.5285 57.1446 68.0717 57.2559 67.4973C57.8927 63.3298 53.6049 60.4045 49.7357 59.7099C47.4814 59.2304 45.1289 59.6523 43.1817 60.8854C41.9992 60.2323 40.612 60.0555 39.3035 60.3911C36.5029 60.9521 35.6525 62.8623 35.7059 64.7189C33.0033 64.5052 31.4983 68.4412 32.0148 71.0949C32.558 73.8777 34.4459 73.6951 34.2945 74.1849C33.2125 77.6623 36.4985 80.7167 39.7132 81.8076C41.4629 82.4646 43.3931 82.4551 45.1363 81.7809L45.1808 82.097C45.2097 82.3355 45.2991 82.5628 45.4407 82.7569C45.5823 82.9511 45.7712 83.1058 45.9895 83.2063C46.2078 83.3067 46.4482 83.3496 46.6878 83.3308C46.9274 83.312 47.1581 83.2321 47.3581 83.0988C47.6475 82.894 49.5264 85.7436 53.8988 84.154C57.0155 83.0275 57.6522 80.6944 57.2693 78.5795C60.3994 78.3524 61.4235 73.5927 60.3727 70.6452Z" fill="white" stroke="#0596A6" stroke-width="2" stroke-miterlimit="10"/>
</g>
</g>
</g>
</g>
<defs>
<clipPath id="clip0_780_14662">
<rect width="80" height="124.895" fill="white" transform="translate(30.5 8)"/>
</clipPath>
</defs>
</svg>
