<svg width="24" height="24" viewBox="0 0 24 24" fill="none" xmlns="http://www.w3.org/2000/svg">
<g clip-path="url(#clip0_1153_73320)">
<path d="M18.4405 2.22766H15.7036C15.6309 1.60144 15.0973 1.11383 14.4519 1.11383H13.679C13.2494 0.427184 12.4943 0 11.6674 0C10.8409 0 10.0856 0.427184 9.65508 1.11383H8.88274C8.23729 1.11383 7.70372 1.60144 7.63103 2.22766H4.89654C3.29931 2.22766 2 3.52715 2 5.1242V21.1036C2 22.7006 3.29931 24 4.89654 24H18.4405C20.0375 24 21.337 22.7006 21.337 21.1036V5.1242C21.337 3.52697 20.0377 2.22766 18.4405 2.22766ZM9.02886 2.52008H9.98228C10.3282 2.52008 10.6396 2.31463 10.7757 1.99658C10.9291 1.63788 11.2792 1.40625 11.6674 1.40625C12.0554 1.40625 12.4049 1.63751 12.5575 1.9953C12.6933 2.31408 13.005 2.52008 13.3514 2.52008H14.3058V4.45531H9.02886V2.52008ZM19.9308 21.1034C19.9308 21.9252 19.2622 22.5937 18.4405 22.5937H4.89654C4.07476 22.5937 3.40625 21.9252 3.40625 21.1034V5.1242C3.40625 4.30242 4.07476 3.6339 4.89654 3.6339H7.62261V4.60161C7.62261 5.29632 8.18785 5.86156 8.88274 5.86156H14.4519C15.1468 5.86156 15.712 5.29632 15.712 4.60161V3.6339H18.4405C19.2622 3.6339 19.9308 4.30242 19.9308 5.1242V21.1034Z" fill="black"/>
<path d="M6.03337 9.5H16.9666C17.5374 9.5 18 9.16406 18 8.75C18 8.33574 17.5374 8 16.9666 8H6.03337C5.46259 8 5 8.33574 5 8.75C5 9.16406 5.46259 9.5 6.03337 9.5Z" fill="black"/>
<path d="M6.03335 14H16.9667C17.5371 14 18 13.6641 18 13.25C18 12.8357 17.5371 12.5 16.9667 12.5H6.03335C5.46285 12.5 5 12.8357 5 13.25C5 13.6641 5.46285 14 6.03335 14Z" fill="black"/>
<path d="M16.9666 17H6.03337C5.46259 17 5 17.3357 5 17.75C5 18.1643 5.46259 18.5 6.03337 18.5H16.9666C17.5374 18.5 18 18.1643 18 17.75C18 17.3357 17.5374 17 16.9666 17Z" fill="black"/>
</g>
<defs>
<clipPath id="clip0_1153_73320">
<rect width="24" height="24" fill="white"/>
</clipPath>
</defs>
</svg>
