<svg width="24" height="26" viewBox="0 0 24 26" fill="none" xmlns="http://www.w3.org/2000/svg">
<g id="Group">
<path id="Vector" d="M1.7002 20.6372V15.6497C1.7002 13.4747 3.4627 11.6997 5.6502 11.6997H18.3627C20.5377 11.6997 22.3127 13.4622 22.3127 15.6497V20.6372C22.3127 22.8122 20.5502 24.5872 18.3627 24.5872H5.6502C3.4627 24.5872 1.7002 22.8247 1.7002 20.6372Z" stroke="white" stroke-width="1.5" stroke-linecap="round" stroke-linejoin="round"/>
<path id="Vector_2" d="M5.5625 11.7124V7.8999C5.5625 4.3499 8.44999 1.4624 12 1.4624C15.55 1.4624 18.4375 4.3499 18.4375 7.8999V11.7124H5.5625Z" stroke="white" stroke-width="1.5" stroke-linecap="round" stroke-linejoin="round"/>
<path id="Vector_3" d="M12 20.725V17.5" stroke="white" stroke-width="1.5" stroke-linecap="round" stroke-linejoin="round"/>
<path id="Vector_4" d="M12.0004 18.1497C12.7115 18.1497 13.2879 17.5733 13.2879 16.8622C13.2879 16.1511 12.7115 15.5747 12.0004 15.5747C11.2893 15.5747 10.7129 16.1511 10.7129 16.8622C10.7129 17.5733 11.2893 18.1497 12.0004 18.1497Z" fill="white" stroke="white" stroke-width="1.5" stroke-linecap="round" stroke-linejoin="round"/>
</g>
</svg>
