<svg width="25" height="24" viewBox="0 0 25 24" fill="none" xmlns="http://www.w3.org/2000/svg">
<g id="icon/point">
<path id="Vector" d="M14.2299 3.51014L15.9899 7.03014C16.2299 7.52014 16.8699 7.99014 17.4099 8.08014L20.5999 8.61014C22.6399 8.95014 23.1199 10.4301 21.6499 11.8901L19.1699 14.3701C18.7499 14.7901 18.5199 15.6001 18.6499 16.1801L19.3599 19.2501C19.9199 21.6801 18.6299 22.6201 16.4799 21.3501L13.4899 19.5801C12.9499 19.2601 12.0599 19.2601 11.5099 19.5801L8.51991 21.3501C6.37991 22.6201 5.07991 21.6701 5.63991 19.2501L6.34991 16.1801C6.47991 15.6001 6.24991 14.7901 5.82991 14.3701L3.34991 11.8901C1.88991 10.4301 2.35991 8.95014 4.39991 8.61014L7.58991 8.08014C8.11991 7.99014 8.75991 7.52014 8.99991 7.03014L10.7599 3.51014C11.7199 1.60014 13.2799 1.60014 14.2299 3.51014Z" stroke="black" stroke-width="1.5" stroke-linecap="round" stroke-linejoin="round"/>
</g>
</svg>
