<svg width="25" height="24" viewBox="0 0 25 24" fill="none" xmlns="http://www.w3.org/2000/svg">
<g id="Group">
<g id="Group_2">
<g id="Group_3">
<path id="Vector" d="M23.4088 12.1007V8.7275C23.4088 7.5837 22.5216 6.6535 21.4006 6.56329L18.2681 1.09179C17.9778 0.585754 17.509 0.224073 16.9481 0.0738875C16.3899 -0.0752748 15.8061 0.00306481 15.3064 0.293873L4.56783 6.5457H2.6818C1.47853 6.5457 0.5 7.52418 0.5 8.7275V21.8182C0.5 23.0215 1.47848 24 2.6818 24H21.227C22.4302 24 23.4088 23.0215 23.4088 21.8182V18.445C24.0423 18.2191 24.4996 17.6194 24.4996 16.9092V13.6365C24.4996 12.9263 24.0423 12.3266 23.4088 12.1007ZM20.133 6.5457H15.3789L18.9445 4.4698L20.133 6.5457ZM18.4025 3.52313L13.2108 6.5457H11.0573L17.8641 2.5827L18.4025 3.52313ZM15.8556 1.23666C16.1022 1.0923 16.3904 1.05395 16.6658 1.12748C16.9444 1.20204 17.1766 1.38209 17.321 1.63403L17.3221 1.63603L8.88935 6.5457H6.73598L15.8556 1.23666ZM22.3178 21.8182C22.3178 22.4195 21.8283 22.9091 21.227 22.9091H2.6818C2.08045 22.9091 1.59093 22.4195 1.59093 21.8182V8.7275C1.59093 8.12615 2.08045 7.63663 2.6818 7.63663H21.227C21.8283 7.63663 22.3178 8.12615 22.3178 8.7275V12.0002H19.0452C17.2405 12.0002 15.7725 13.4682 15.7725 15.2728C15.7725 17.0775 17.2405 18.5455 19.0452 18.5455H22.3178V21.8182ZM23.4088 16.9092C23.4088 17.2101 23.1643 17.4546 22.8633 17.4546H19.0452C17.8419 17.4546 16.8634 16.4762 16.8634 15.2728C16.8634 14.0696 17.8418 13.091 19.0452 13.091H22.8633C23.1642 13.091 23.4088 13.3355 23.4088 13.6365V16.9092Z" fill="black"/>
<path id="Vector_2" d="M19.045 14.1821C18.4436 14.1821 17.9541 14.6716 17.9541 15.273C17.9541 15.8744 18.4436 16.3639 19.045 16.3639C19.6463 16.3639 20.1358 15.8744 20.1358 15.273C20.1359 14.6716 19.6464 14.1821 19.045 14.1821Z" fill="black"/>
</g>
</g>
</g>
</svg>
